<?xml version="1.0" encoding="utf-8"?>
<!-- Generator: Adobe Illustrator 24.1.2, SVG Export Plug-In . SVG Version: 6.00 Build 0)  -->
<svg version="1.1" id="Layer_1" xmlns="http://www.w3.org/2000/svg" xmlns:xlink="http://www.w3.org/1999/xlink" x="0px" y="0px"
	 viewBox="0 0 203.37 230.94" style="enable-background:new 0 0 203.37 230.94;" xml:space="preserve">
<style type="text/css">
	.st0{display:none;}
	.st1{display:inline;fill:url(#SVGID_1_);}
	.st2{display:inline;fill:url(#SVGID_2_);}
	.st3{display:inline;fill:url(#SVGID_3_);}
	.st4{display:inline;}
	.st5{fill:url(#SVGID_4_);}
	.st6{fill:url(#SVGID_5_);}
	.st7{fill:url(#SVGID_6_);}
	.st8{fill:#38A6DE;}
	.st9{fill:#2E3180;}
	.st10{fill:url(#SVGID_7_);}
	.st11{fill:url(#SVGID_8_);}
	.st12{fill:#28ABE2;}
	.st13{fill:#015FA6;}
	.st14{fill:url(#SVGID_9_);}
	.st15{fill:#FFFFFF;}
</style>
<g class="st0">
	<radialGradient id="SVGID_1_" cx="-5388.8667" cy="-965.4754" r="1023.8292" gradientUnits="userSpaceOnUse">
		<stop  offset="0" style="stop-color:#FFFDE9"/>
		<stop  offset="1" style="stop-color:#D4EFFC"/>
	</radialGradient>
	<rect x="-5851.81" y="-1166.95" class="st1" width="1200" height="800"/>
	<text transform="matrix(1 0 0 1 -5369.4678 -572.3183)" class="st4"><tspan x="0" y="0" style="fill:#2AACE2; font-family:'Akrobat-Black'; font-size:60.7256px;">s k i l l </tspan><tspan x="159.76" y="0" style="fill:#005EA5; font-family:'Akrobat-Black'; font-size:60.7256px;">u p</tspan></text>
	<linearGradient id="SVGID_2_" gradientUnits="userSpaceOnUse" x1="-5385.355" y1="-784.491" x2="-5118.272" y2="-784.491">
		<stop  offset="0" style="stop-color:#00AEEF"/>
		<stop  offset="1" style="stop-color:#005EA5"/>
	</linearGradient>
	<path class="st2" d="M-5385.35-844.86c5.88,0.82,11.26,2.76,16.72,4.38c5.68,1.68,6.65,0.72,5.94-5.23
		c-2.51-21.01-4.19-15.8,13.09-25.02c25.21-13.44,51.18-24.87,79.78-28.76c20.32-2.76,40.46-1.16,60.23,4.33
		c24.3,6.74,46.6,18.17,68.92,29.55c2.91,1.48,4.85,3.3,4.33,6.94c-3.02,21.04-4.84,42.26-9.35,63.07c-0.47,2.19,0.38,6.94-3.8,5.69
		c-3.52-1.05-8.35-2.59-7.31-8.49c1.55-8.8,3-17.63,4.32-26.47c1.35-9.04,2.47-18.11,3.74-27.16c0.36-2.56,0.1-4.59-2.57-5.97
		c-23.35-12.07-47.02-23.25-72.97-28.74c-30.4-6.43-59.29-0.78-87.32,11c-12.27,5.15-24.47,10.51-36.13,17.02
		c-3.3,1.84-4.59,4.05-4,7.69c0.7,4.31,1.17,8.65,1.8,12.98c0.34,2.38,1.59,3.93,4.06,4.55c2.5,0.63,3.9,0.36,3.43-2.72
		c-0.51-3.34-0.68-6.73-1.25-10.05c-0.69-4.07,0.56-6.96,4.35-8.77c19.01-9.08,37.98-18.09,58.67-23.06
		c27.46-6.59,54-3.69,80.16,5.94c13.64,5.02,26.9,10.83,39.65,17.83c3.01,1.65,4.27,3.35,3.82,7.01c-1.73,14-3.55,27.99-6.12,41.87
		c-1.21,6.51-1.58,6.88-7.49,3.57c-14.55-8.16-28.94-16.59-43.38-24.96c-7.56-4.39-15.04-8.92-22.61-13.3
		c-6.29-3.64-13.83-2.19-16.87,3.13c-3.38,5.92-0.89,12.53,5.88,16.43c41.66,23.99,83.28,48.04,124.89,72.1
		c1.47,0.85,3.31,1.41,4.46,4.4c-8.21-2.44-15.72-4.55-23.16-6.92c-15.05-4.8-14.83-4.74-22.56,8.87
		c-9.88,17.37-23.82,31.17-39.49,43.34c-13.68,10.62-28.11,20.12-42.83,29.21c-2.63,1.63-4.88,2.09-7.68,0.34
		c-22.63-14.1-44.87-28.67-63.69-47.88c-21.3-21.74-31.97-48.46-37.23-77.82c-0.23-1.29-1.11-2.92,0.35-3.85
		c1.41-0.9,2.54,0.6,3.75,1.16c5.57,2.56,8.78,6.51,10.08,12.87c7.62,37.43,31.11,63.56,61.31,84.71
		c8.08,5.66,16.42,10.96,24.63,16.45c2.47,1.65,4.75,2.37,7.66,0.55c25.2-15.68,49.67-32.2,67.58-56.58
		c3.42-4.66,6.43-9.56,8.66-14.92c0.95-2.28,1.28-4.3-1.49-5.43c-2.31-0.94-3.73,0.17-4.76,2.23c-15.11,30.23-42.06,48-69.1,65.67
		c-2.33,1.52-4.62,2.14-7.19,0.45c-20.91-13.75-42.29-26.91-57.89-47.16c-9.7-12.59-16.68-26.55-20.79-41.91
		c-0.43-1.61-1.78-3.65,0.05-4.96c1.53-1.1,2.93,0.62,4.25,1.38c20.62,11.96,41.22,23.96,61.84,35.93c1.2,0.7,2.47,1.28,3.77,1.78
		c6.5,2.48,12.68,0.76,15.14-4.14c2.83-5.64,0.9-12.07-5.39-15.77c-16.78-9.87-33.71-19.5-50.57-29.23
		c-26.33-15.18-52.67-30.35-78.99-45.55C-5383.32-842.02-5385.09-842.37-5385.35-844.86z"/>
</g>
<g class="st0">
	<radialGradient id="SVGID_3_" cx="-5388.8667" cy="-965.4754" r="1023.8292" gradientUnits="userSpaceOnUse">
		<stop  offset="0" style="stop-color:#FFFDE9"/>
		<stop  offset="1" style="stop-color:#D4EFFC"/>
	</radialGradient>
	<rect x="-5851.81" y="-1166.95" class="st3" width="1200" height="800"/>
	<text transform="matrix(1 0 0 1 -5372.7466 -572.3183)" class="st4"><tspan x="0" y="0" style="fill:#2AACE2; font-family:'Dosis-Bold'; font-size:60.7256px;">s k i l l</tspan><tspan x="146.89" y="0" style="fill:#005DA4; font-family:'Dosis-Bold'; font-size:60.7256px;"> </tspan><tspan x="159.76" y="0" style="fill:#005EA5; font-family:'Dosis-Bold'; font-size:60.7256px;">U P</tspan></text>
	<g class="st4">
		<linearGradient id="SVGID_4_" gradientUnits="userSpaceOnUse" x1="-5276.561" y1="-784.491" x2="-5165.6558" y2="-784.491">
			<stop  offset="0" style="stop-color:#005EA5"/>
			<stop  offset="1" style="stop-color:#00AEEF"/>
		</linearGradient>
		<path class="st5" d="M-5276.56-683.7c17.94-10.5,32.74-19.53,47.88-27.94c21.83-12.12,33.75-29.51,32.97-55.32
			c-0.72-23.85-0.15-47.74-0.15-74.96c-26.73,15.08-50.81,28.68-75.19,42.44c-6.28-27.56-5.7-28.8,16.85-42.22
			c24.58-14.63,49.17-29.24,73.62-44.1c10.07-6.12,15.2-6.68,14.92,8.07c-0.74,38.61,0.32,77.25-0.54,115.85
			C-5167.49-704.9-5220.72-665.27-5276.56-683.7z"/>
		<linearGradient id="SVGID_5_" gradientUnits="userSpaceOnUse" x1="-5337.9707" y1="-796.6586" x2="-5225.6807" y2="-796.6586">
			<stop  offset="0" style="stop-color:#00AEEF"/>
			<stop  offset="1" style="stop-color:#005EA5"/>
		</linearGradient>
		<path class="st6" d="M-5336.99-817.39c0-17.56-0.6-35.15,0.32-52.66c0.33-6.33-5.57-18.99,5.34-17.97
			c8.84,0.83,22.72,5.03,22.88,19.76c0.26,24.58-0.03,49.17,0.18,73.75c0.11,12.85,0.64,25.7,1.28,38.54
			c0.57,11.55,4.26,16.02,15.96,8.25c14.09-9.36,28.95-17.64,43.86-25.68c5.52-2.98,13.57-11.99,17.56-4.7
			c4.42,8.09,7.15,22.05-3.13,28.73c-23.49,15.28-48.23,28.66-72.56,42.64c-6.75,3.88-10.8-0.33-14.33-5.63
			c-9.88-14.83-17.22-30.54-17.24-48.83c-0.02-18.73,0-37.46,0-56.19C-5336.93-817.39-5336.96-817.39-5336.99-817.39z"/>
	</g>
</g>
<g>
	<g>
		<radialGradient id="SVGID_6_" cx="-1201.2771" cy="114.9986" r="108.8637" gradientUnits="userSpaceOnUse">
			<stop  offset="0" style="stop-color:#38A7DF"/>
			<stop  offset="1" style="stop-color:#2F2F81"/>
		</radialGradient>
		<path class="st7" d="M-1100.67,57.6c1.08,1.36,0.52,75.31,0.65,110.84c0.01,3.72-65.87,43.07-96.52,60.95
			c-3.36,1.96-5.8,2.15-9.3,0.1c-30.79-17.99-96.72-55.46-96.7-58.64c0.13-22.74,0.07-45.48,0.07-69.22
			c3.43,1.93,6.21,3.46,8.96,5.05c29.31,16.91,58.65,33.77,87.86,50.84c3.3,1.93,5.63,1.81,8.81-0.07
			c17.24-10.16,34.61-20.1,51.95-30.1c1.68-0.97,3.42-1.84,5.9-3.16c0,8.85-0.06,16.96,0.04,25.06c0.03,2.15-40.67,25.32-59.5,36.36
			c-2.55,1.49-4.21,0.81-6.39-0.46c-22.81-13.25-71.64-41.25-74.01-42.51c0,5.52,0.12,10.34-0.05,15.15
			c-0.09,2.38,50.67,31.38,74.41,45.2c2.37,1.38,4.09,1.33,6.42-0.03c23.58-13.73,74.46-42.91,74.44-45.76
			c-0.14-19.48-0.07-38.96-0.07-58.47c-2.49-0.72-3.91,1.08-5.52,2c-22.72,13.04-45.43,26.11-68.05,39.32
			c-2.81,1.64-4.8,1.94-7.81,0.18c-30.95-18.06-97.69-57.67-97.49-61.44c0.32-6,0.22-12.02,0.05-18.03
			c-0.09-2.87,66.14-42.21,97.46-60.36c2.36-1.37,4.19-1.98,6.91-0.39c27.18,15.85,54.46,31.53,81.72,47.26
			c-0.03,2.01-54.9,32.83-80.84,47.93c-2.82,1.64-4.85,1.92-7.82,0.15c-14.05-8.37-28.27-16.43-43.24-25.07
			c7.83-4.51,15.06-8.63,22.23-12.84c1.92-1.13,3.13,0.26,4.44,1.01c5.86,3.31,11.64,6.77,17.48,10.11
			c1.35,0.77,2.55,1.89,4.46,0.77c12.05-7.06,24.16-14.01,37.06-21.46c-12.8-7.41-24.83-14.37-36.86-21.35
			c-1.46-0.85-2.71-0.47-4.07,0.32c-24.55,14.23-49.12,28.43-73.67,42.66c-0.28,0.16-0.42,0.57-0.84,1.17
			c15.1,8.75,30.17,17.49,45.25,26.21c9.14,5.28,18.39,10.37,27.39,15.87c3.07,1.87,5.21,1.82,8.32,0.01
			C-1166.65,94.97-1102.62,57.51-1100.67,57.6z"/>
	</g>
</g>
<g>
	<g>
		<g>
			<g>
				<path class="st8" d="M-5363.79,262.75c0-3.54-1.75-5.15-5.8-6.95l-2.84-1.3c-7.92-3.61-12.48-7.6-12.48-15.04
					c0-8.07,6.52-12.96,16.7-12.96c4.79,0,9.42,1.27,12.7,3.42l-0.55,9.41h-6.16l-1.64-10.14l5.42,1.93v3.36
					c-3.58-2.59-6.12-3.98-9.58-3.98c-3.83,0-6.93,2.43-6.93,6.11c0,3.55,2.12,5.41,6.11,7.19l3.15,1.44
					c8.58,3.86,12.1,7.57,12.1,14.37c0,7.93-6.07,13.54-17.55,13.54c-5.04,0-10.72-1.13-14.58-3.51l0.4-9.99h6.26l1.75,10.88
					l-5.19-1.64v-3.22c4.26,2.3,7.03,3.49,11.36,3.49C-5366.37,269.16-5363.79,266.39-5363.79,262.75z"/>
				<path class="st8" d="M-5349.44,231.36v-3.61h21.19v3.61l-9.46,1.01h-1.97L-5349.44,231.36z M-5337.72,267.28l8.73,1.01v3.61
					h-20.46v-3.61l9.75-1.01H-5337.72z M-5344.27,248.58c0-6.92,0-13.91-0.2-20.83h11.19c-0.2,6.79-0.2,13.77-0.2,20.83v2.92
					c0,6.48,0,13.47,0.2,20.39h-11.19c0.2-6.79,0.2-13.77,0.2-20.83V248.58z M-5338.62,257.09l23.71-29.34h5l-28.71,34.04V257.09z
					 M-5323.52,241.07l16.36,30.83h-12.28l-11.06-22.3L-5323.52,241.07z M-5324.63,268.29l9.03-1.01h1.54l8.84,1.01v3.61h-19.41
					V268.29z M-5322.87,231.36v-3.61h15.55v3.61l-7.78,1.01l-1.97,0.09L-5322.87,231.36z"/>
				<path class="st8" d="M-5302.69,231.36v-3.61h21.67v3.61l-9.95,1.01h-1.97L-5302.69,231.36z M-5290.96,267.28l9.95,1.01v3.61
					h-21.67v-3.61l9.75-1.01H-5290.96z M-5297.52,248.58c0-6.92,0-13.91-0.2-20.83h11.69c-0.2,6.79-0.2,13.77-0.2,20.83v2.44
					c0,6.97,0,13.96,0.2,20.88h-11.69c0.2-6.79,0.2-13.77,0.2-20.83V248.58z"/>
				<path class="st8" d="M-5276.62,231.36v-3.61h22.16v3.61l-9.95,1.01h-2.46L-5276.62,231.36z M-5265.81,267.28v4.62h-10.81v-3.61
					l9.75-1.01H-5265.81z M-5271.65,227.76h11.69c-0.2,6.82-0.2,13.81-0.2,20.83v3.54c0,5.9,0,12.89,0.2,19.77h-11.69
					c0.2-6.82,0.2-13.81,0.2-19.42v-3.89C-5271.45,241.63-5271.45,234.64-5271.65,227.76z M-5241.15,258.73l-0.67,13.16h-23.99
					v-3.84h21.73l-5.1,3.84l2.64-13.16H-5241.15z"/>
				<path class="st8" d="M-5237.66,231.36v-3.61h22.16v3.61l-9.95,1.01h-2.46L-5237.66,231.36z M-5226.85,267.28v4.62h-10.81v-3.61
					l9.75-1.01H-5226.85z M-5232.69,227.76h11.69c-0.2,6.82-0.2,13.81-0.2,20.83v3.54c0,5.9,0,12.89,0.2,19.77h-11.69
					c0.2-6.82,0.2-13.81,0.2-19.42v-3.89C-5232.49,241.63-5232.49,234.64-5232.69,227.76z M-5202.19,258.73l-0.67,13.16h-23.99
					v-3.84h21.73l-5.1,3.84l2.64-13.16H-5202.19z"/>
				<path class="st9" d="M-5198.94,231.36v-3.61h21.91v3.61l-9.99,1.01h-1.93L-5198.94,231.36z M-5173.1,267.04
					c6.03,0,9.64-4.03,9.64-14.16v-25.12h4.38v25.12c0,14.25-6.61,20.27-17.72,20.27c-9.94,0-17.15-4.91-17.15-17.94v-7.3
					c0-6.63,0-13.42-0.2-20.15h11.68c-0.2,6.59-0.2,13.38-0.2,20.15v5.16C-5182.67,263.36-5179.47,267.04-5173.1,267.04z
					 M-5162.41,231.98l-7.15-0.62v-3.61h16.03v3.61l-6.91,0.62H-5162.41z"/>
				<path class="st9" d="M-5149.59,231.36v-3.61h10.81v4.62h-1.06L-5149.59,231.36z M-5136.75,267.28l9.75,1.01v3.61h-22.59v-3.61
					l9.75-1.01H-5136.75z M-5144.42,248.58c0-6.92,0-13.91-0.2-20.83h11.69c-0.2,6.79-0.2,13.77-0.2,20.83v4.1
					c0,5.5,0,12.3,0.2,19.22h-11.69c0.2-6.79,0.2-13.77,0.2-20.83V248.58z M-5131.25,255.01h-7.52v-3.77h7.61
					c5.94,0,8.87-4.12,8.87-10.26c0-6.18-3.29-9.36-9.14-9.36h-7.34v-3.87h7.46c14.01,0,19.58,5.27,19.58,13.27
					C-5111.75,248.7-5116.68,255.01-5131.25,255.01z"/>
			</g>
		</g>
		<radialGradient id="SVGID_7_" cx="-5251.8135" cy="51.5387" r="108.8637" gradientUnits="userSpaceOnUse">
			<stop  offset="0" style="stop-color:#38A7DF"/>
			<stop  offset="1" style="stop-color:#2F2F81"/>
		</radialGradient>
		<path class="st10" d="M-5151.21-5.86c1.08,1.36,0.52,75.31,0.65,110.84c0.01,3.72-65.88,43.07-96.52,60.95
			c-3.36,1.96-5.8,2.15-9.3,0.1c-30.79-17.99-96.72-55.46-96.7-58.64c0.13-22.74,0.07-45.48,0.07-69.22
			c3.43,1.93,6.21,3.46,8.96,5.05c29.31,16.91,58.65,33.77,87.86,50.84c3.3,1.93,5.63,1.81,8.81-0.07
			c17.24-10.16,34.61-20.1,51.95-30.1c1.68-0.97,3.42-1.84,5.9-3.16c0,8.85-0.06,16.96,0.04,25.06c0.03,2.15-40.67,25.32-59.5,36.36
			c-2.55,1.49-4.21,0.81-6.39-0.46c-22.81-13.25-71.64-41.25-74.01-42.51c0,5.52,0.12,10.34-0.05,15.15
			c-0.09,2.38,50.67,31.38,74.41,45.2c2.37,1.38,4.09,1.33,6.42-0.03c23.58-13.73,74.46-42.91,74.44-45.76
			c-0.14-19.48-0.07-38.96-0.07-58.47c-2.49-0.72-3.91,1.08-5.52,2c-22.72,13.04-45.43,26.11-68.05,39.32
			c-2.81,1.64-4.8,1.94-7.81,0.18c-30.95-18.06-97.69-57.67-97.49-61.44c0.32-6,0.23-12.02,0.05-18.03
			c-0.09-2.87,66.14-42.21,97.46-60.36c2.36-1.37,4.19-1.98,6.91-0.39c27.18,15.85,54.46,31.53,81.72,47.26
			c-0.03,2.01-54.9,32.83-80.84,47.93c-2.82,1.64-4.85,1.92-7.82,0.15c-14.04-8.37-28.27-16.43-43.24-25.07
			c7.83-4.51,15.06-8.63,22.23-12.84c1.92-1.13,3.13,0.26,4.44,1.01c5.86,3.31,11.64,6.77,17.48,10.11
			c1.35,0.77,2.55,1.89,4.46,0.77c12.05-7.06,24.16-14.01,37.06-21.46c-12.8-7.41-24.83-14.37-36.85-21.35
			c-1.46-0.85-2.71-0.47-4.07,0.32c-24.55,14.23-49.12,28.43-73.67,42.66c-0.28,0.16-0.42,0.57-0.84,1.17
			c15.1,8.75,30.17,17.49,45.25,26.21c9.14,5.28,18.39,10.37,27.39,15.87c3.07,1.87,5.21,1.82,8.32,0.01
			C-5217.18,31.51-5153.16-5.95-5151.21-5.86z"/>
	</g>
</g>
<g>
	<g>
		<linearGradient id="SVGID_8_" gradientUnits="userSpaceOnUse" x1="-1302.5823" y1="-766.949" x2="-1099.9719" y2="-766.949">
			<stop  offset="0" style="stop-color:#00AEEF"/>
			<stop  offset="1" style="stop-color:#005EA5"/>
		</linearGradient>
		<path class="st11" d="M-1100.66-824.35c1.08,1.36,0.57,2.87,0.57,4.25c0.03,35.53-0.05,71.06,0.07,106.59
			c0.01,3.72-1.05,5.8-4.36,7.7c-30.8,17.61-61.51,35.37-92.15,53.25c-3.36,1.96-5.8,2.15-9.3,0.1
			c-30.79-17.99-61.72-35.74-92.59-53.59c-1.97-1.14-4.13-1.87-4.11-5.06c0.13-22.74,0.07-45.48,0.07-69.22
			c3.43,1.93,6.21,3.46,8.96,5.05c29.31,16.91,58.65,33.77,87.86,50.84c3.3,1.92,5.63,1.81,8.81-0.07
			c17.24-10.16,34.61-20.1,51.95-30.1c1.68-0.97,3.42-1.84,5.9-3.16c0,8.85-0.06,16.96,0.04,25.06c0.03,2.15-1.46,2.76-2.83,3.55
			c-18.9,10.93-37.84,21.77-56.68,32.81c-2.55,1.49-4.21,0.81-6.39-0.46c-22.81-13.25-45.67-26.41-68.52-39.59
			c-1.53-0.88-3.12-1.67-5.49-2.92c0,5.52,0.12,10.34-0.05,15.15c-0.09,2.38,1.51,3.06,3.06,3.95
			c23.79,13.73,47.61,27.43,71.35,41.25c2.37,1.38,4.09,1.33,6.42-0.03c23.58-13.73,47.23-27.35,70.86-40.99
			c1.89-1.09,3.6-1.92,3.58-4.77c-0.14-19.48-0.07-38.96-0.07-58.47c-2.49-0.72-3.91,1.08-5.52,2
			c-22.72,13.04-45.43,26.11-68.05,39.32c-2.81,1.64-4.8,1.94-7.81,0.18c-30.95-18.06-61.99-35.97-93.1-53.74
			c-3.3-1.89-4.59-3.93-4.39-7.69c0.32-6,0.22-12.02,0.05-18.03c-0.09-2.87,0.79-4.61,3.38-6.1c31.41-18.01,62.76-36.12,94.09-54.26
			c2.36-1.37,4.19-1.98,6.91-0.39c27.18,15.85,54.46,31.53,81.72,47.26c-0.03,2.01-1.8,2.2-2.89,2.83
			c-25.97,15.05-52.01,30-77.95,45.1c-2.82,1.64-4.85,1.92-7.82,0.15c-14.05-8.37-28.27-16.43-43.24-25.07
			c7.83-4.51,15.06-8.63,22.23-12.84c1.92-1.13,3.13,0.26,4.44,1.01c5.86,3.31,11.64,6.77,17.48,10.11
			c1.35,0.77,2.55,1.89,4.46,0.77c12.05-7.06,24.16-14.01,37.06-21.46c-12.8-7.41-24.83-14.37-36.86-21.35
			c-1.46-0.85-2.71-0.47-4.07,0.32c-24.55,14.23-49.12,28.43-73.67,42.66c-0.28,0.16-0.42,0.57-0.84,1.17
			c15.1,8.75,30.17,17.49,45.25,26.21c9.14,5.28,18.39,10.37,27.39,15.87c3.07,1.87,5.21,1.82,8.32,0.01
			c30.49-17.79,61.08-35.38,91.67-53C-1103.95-823.06-1102.62-824.44-1100.66-824.35z"/>
	</g>
</g>
<g>
	<g>
		<g>
			<g>
				<path class="st12" d="M-5363.79-619.19c0-3.54-1.75-5.15-5.8-6.95l-2.84-1.3c-7.92-3.61-12.48-7.6-12.48-15.04
					c0-8.07,6.52-12.96,16.7-12.96c4.79,0,9.42,1.27,12.7,3.42l-0.55,9.41h-6.16l-1.64-10.14l5.42,1.93v3.36
					c-3.58-2.59-6.12-3.98-9.58-3.98c-3.83,0-6.93,2.43-6.93,6.11c0,3.55,2.12,5.41,6.11,7.19l3.15,1.44
					c8.58,3.86,12.1,7.57,12.1,14.37c0,7.93-6.07,13.54-17.55,13.54c-5.04,0-10.72-1.13-14.58-3.51l0.4-9.99h6.26l1.75,10.88
					l-5.19-1.64v-3.22c4.26,2.3,7.03,3.49,11.36,3.49C-5366.37-612.79-5363.79-615.55-5363.79-619.19z"/>
				<path class="st12" d="M-5349.44-650.58v-3.61h21.19v3.61l-9.46,1.01h-1.97L-5349.44-650.58z M-5337.71-614.67l8.73,1.01v3.61
					h-20.46v-3.61l9.75-1.01H-5337.71z M-5344.27-633.36c0-6.92,0-13.91-0.2-20.83h11.19c-0.2,6.79-0.2,13.77-0.2,20.83v2.92
					c0,6.48,0,13.47,0.2,20.39h-11.19c0.2-6.79,0.2-13.77,0.2-20.83V-633.36z M-5338.62-624.86l23.71-29.34h5l-28.71,34.04V-624.86z
					 M-5323.52-640.88l16.36,30.83h-12.28l-11.06-22.3L-5323.52-640.88z M-5324.62-613.66l9.03-1.01h1.54l8.84,1.01v3.61h-19.41
					V-613.66z M-5322.87-650.58v-3.61h15.55v3.61l-7.78,1.01l-1.97,0.09L-5322.87-650.58z"/>
				<path class="st12" d="M-5302.68-650.58v-3.61h21.67v3.61l-9.95,1.01h-1.97L-5302.68-650.58z M-5290.96-614.67l9.95,1.01v3.61
					h-21.67v-3.61l9.75-1.01H-5290.96z M-5297.51-633.36c0-6.92,0-13.91-0.2-20.83h11.69c-0.2,6.79-0.2,13.77-0.2,20.83v2.44
					c0,6.97,0,13.96,0.2,20.88h-11.69c0.2-6.79,0.2-13.77,0.2-20.83V-633.36z"/>
				<path class="st12" d="M-5276.62-650.58v-3.61h22.16v3.61l-9.95,1.01h-2.46L-5276.62-650.58z M-5265.81-614.67v4.62h-10.81v-3.61
					l9.75-1.01H-5265.81z M-5271.65-654.19h11.69c-0.2,6.82-0.2,13.81-0.2,20.83v3.54c0,5.9,0,12.89,0.2,19.77h-11.69
					c0.2-6.82,0.2-13.81,0.2-19.42v-3.89C-5271.45-640.32-5271.45-647.31-5271.65-654.19z M-5241.15-623.21l-0.67,13.16h-23.98
					v-3.84h21.73l-5.1,3.84l2.64-13.16H-5241.15z"/>
				<path class="st12" d="M-5237.66-650.58v-3.61h22.16v3.61l-9.95,1.01h-2.46L-5237.66-650.58z M-5226.85-614.67v4.62h-10.81v-3.61
					l9.75-1.01H-5226.85z M-5232.69-654.19h11.69c-0.2,6.82-0.2,13.81-0.2,20.83v3.54c0,5.9,0,12.89,0.2,19.77h-11.69
					c0.2-6.82,0.2-13.81,0.2-19.42v-3.89C-5232.49-640.32-5232.49-647.31-5232.69-654.19z M-5202.19-623.21l-0.67,13.16h-23.99
					v-3.84h21.73l-5.1,3.84l2.64-13.16H-5202.19z"/>
				<path class="st13" d="M-5198.93-650.58v-3.61h21.91v3.61l-9.99,1.01h-1.93L-5198.93-650.58z M-5173.1-614.91
					c6.03,0,9.64-4.03,9.64-14.16v-25.12h4.38v25.12c0,14.25-6.61,20.27-17.72,20.27c-9.94,0-17.15-4.91-17.15-17.94v-7.3
					c0-6.63,0-13.42-0.2-20.15h11.68c-0.2,6.59-0.2,13.38-0.2,20.15v5.16C-5182.67-618.59-5179.46-614.91-5173.1-614.91z
					 M-5162.41-649.96l-7.15-0.62v-3.61h16.03v3.61l-6.91,0.62H-5162.41z"/>
				<path class="st13" d="M-5149.59-650.58v-3.61h10.81v4.62h-1.06L-5149.59-650.58z M-5136.75-614.67l9.75,1.01v3.61h-22.59v-3.61
					l9.75-1.01H-5136.75z M-5144.42-633.36c0-6.92,0-13.91-0.2-20.83h11.69c-0.2,6.79-0.2,13.77-0.2,20.83v4.1
					c0,5.5,0,12.3,0.2,19.22h-11.69c0.2-6.79,0.2-13.77,0.2-20.83V-633.36z M-5131.25-626.93h-7.52v-3.77h7.61
					c5.94,0,8.87-4.12,8.87-10.26c0-6.18-3.29-9.36-9.14-9.36h-7.34v-3.87h7.46c14.01,0,19.58,5.27,19.58,13.27
					C-5111.74-633.25-5116.68-626.93-5131.25-626.93z"/>
			</g>
		</g>
		<linearGradient id="SVGID_9_" gradientUnits="userSpaceOnUse" x1="-5353.1187" y1="-830.4089" x2="-5150.5083" y2="-830.4089">
			<stop  offset="0" style="stop-color:#00AEEF"/>
			<stop  offset="1" style="stop-color:#005EA5"/>
		</linearGradient>
		<path class="st14" d="M-5151.2-887.81c1.08,1.36,0.57,2.87,0.57,4.25c0.02,35.53-0.05,71.06,0.07,106.59
			c0.01,3.72-1.05,5.8-4.36,7.7c-30.8,17.61-61.51,35.37-92.15,53.25c-3.36,1.96-5.8,2.15-9.3,0.1
			c-30.79-17.99-61.72-35.74-92.59-53.59c-1.97-1.14-4.13-1.87-4.11-5.06c0.13-22.74,0.07-45.48,0.07-69.22
			c3.43,1.93,6.21,3.46,8.96,5.05c29.31,16.91,58.65,33.77,87.86,50.84c3.29,1.92,5.63,1.81,8.81-0.07
			c17.24-10.16,34.61-20.1,51.95-30.1c1.68-0.97,3.42-1.84,5.9-3.16c0,8.85-0.06,16.96,0.04,25.06c0.03,2.15-1.46,2.76-2.83,3.55
			c-18.9,10.93-37.84,21.77-56.68,32.81c-2.55,1.49-4.21,0.81-6.39-0.46c-22.81-13.25-45.67-26.41-68.52-39.59
			c-1.53-0.88-3.12-1.67-5.49-2.92c0,5.52,0.12,10.34-0.05,15.15c-0.09,2.38,1.51,3.06,3.06,3.95
			c23.79,13.73,47.61,27.43,71.35,41.25c2.37,1.38,4.09,1.33,6.42-0.03c23.58-13.73,47.23-27.35,70.86-40.99
			c1.89-1.09,3.6-1.92,3.58-4.77c-0.14-19.48-0.07-38.96-0.07-58.47c-2.49-0.72-3.91,1.08-5.52,2
			c-22.72,13.04-45.43,26.11-68.05,39.32c-2.81,1.64-4.8,1.94-7.81,0.18c-30.95-18.06-61.99-35.97-93.1-53.74
			c-3.3-1.89-4.59-3.93-4.39-7.69c0.32-6,0.23-12.02,0.05-18.03c-0.09-2.87,0.79-4.61,3.38-6.1c31.41-18.01,62.76-36.12,94.09-54.26
			c2.36-1.37,4.19-1.98,6.91-0.39c27.18,15.85,54.46,31.53,81.72,47.26c-0.03,2.01-1.8,2.2-2.89,2.83
			c-25.97,15.05-52.01,30-77.95,45.1c-2.82,1.64-4.85,1.92-7.82,0.15c-14.04-8.37-28.27-16.43-43.24-25.07
			c7.83-4.51,15.06-8.63,22.23-12.84c1.92-1.13,3.13,0.26,4.44,1.01c5.86,3.31,11.64,6.77,17.48,10.11
			c1.35,0.77,2.55,1.89,4.46,0.77c12.05-7.06,24.16-14.01,37.06-21.46c-12.81-7.41-24.83-14.37-36.85-21.35
			c-1.46-0.85-2.71-0.47-4.07,0.32c-24.55,14.23-49.12,28.43-73.67,42.66c-0.28,0.16-0.42,0.57-0.84,1.17
			c15.1,8.75,30.17,17.49,45.25,26.21c9.14,5.28,18.39,10.37,27.39,15.87c3.07,1.87,5.21,1.82,8.32,0.01
			c30.49-17.79,61.08-35.38,91.67-53C-5154.49-886.52-5153.16-887.9-5151.2-887.81z"/>
	</g>
</g>
<g>
	<g>
		<path class="st15" d="M198.33,61.19c1.03,1.3,0.5,71.97,0.62,105.92c0.01,3.55-62.95,41.16-92.23,58.24
			c-3.21,1.88-5.54,2.05-8.89,0.1c-29.42-17.19-92.42-52.99-92.41-56.04c0.13-21.73,0.07-43.46,0.07-66.15
			c3.28,1.84,5.93,3.31,8.56,4.82c28.01,16.16,56.04,32.28,83.96,48.59c3.15,1.84,5.38,1.73,8.42-0.06
			c16.47-9.71,33.07-19.21,49.64-28.77c1.61-0.93,3.27-1.76,5.64-3.02c0,8.46-0.06,16.2,0.04,23.95
			c0.03,2.05-38.86,24.2-56.86,34.75c-2.44,1.43-4.02,0.77-6.11-0.44c-21.8-12.66-68.46-39.42-70.73-40.63
			c0,5.28,0.12,9.88-0.05,14.48c-0.08,2.28,48.42,29.99,71.11,43.2c2.26,1.32,3.91,1.27,6.14-0.03c22.53-13.12,71.16-41,71.14-43.73
			c-0.13-18.62-0.07-37.24-0.07-55.87c-2.38-0.69-3.74,1.03-5.28,1.91c-21.71,12.46-43.41,24.95-65.03,37.57
			c-2.68,1.57-4.59,1.85-7.47,0.17C68.98,122.89,5.2,85.03,5.39,81.44c0.3-5.73,0.22-11.49,0.04-17.23
			c-0.08-2.74,63.2-40.34,93.14-57.68c2.26-1.31,4-1.9,6.61-0.38c25.98,15.15,52.05,30.13,78.09,45.17
			c-0.03,1.92-52.46,31.37-77.25,45.81c-2.69,1.57-4.64,1.84-7.48,0.15c-13.42-8-27.01-15.7-41.32-23.96
			c7.48-4.31,14.39-8.25,21.24-12.27c1.83-1.08,2.99,0.25,4.25,0.96c5.6,3.17,11.12,6.47,16.71,9.66c1.29,0.74,2.44,1.81,4.26,0.74
			c11.51-6.75,23.09-13.39,35.41-20.51c-12.24-7.09-23.73-13.74-35.22-20.4c-1.39-0.81-2.59-0.45-3.89,0.31
			c-23.46,13.6-46.94,27.17-70.4,40.76c-0.27,0.16-0.4,0.55-0.8,1.12c14.43,8.36,28.83,16.71,43.24,25.04
			c8.73,5.05,17.57,9.91,26.17,15.16c2.93,1.79,4.98,1.74,7.95,0.01C135.28,96.9,196.47,61.11,198.33,61.19z"/>
	</g>
</g>
<g>
	<g>
		<g>
			<g>
				<path class="st15" d="M-2733.74,262.75c0-3.54-1.75-5.15-5.8-6.95l-2.84-1.3c-7.92-3.61-12.48-7.6-12.48-15.04
					c0-8.07,6.52-12.96,16.7-12.96c4.79,0,9.42,1.27,12.7,3.42l-0.55,9.41h-6.16l-1.64-10.14l5.42,1.93v3.36
					c-3.58-2.59-6.12-3.98-9.58-3.98c-3.83,0-6.93,2.43-6.93,6.11c0,3.55,2.13,5.41,6.11,7.19l3.15,1.44
					c8.58,3.86,12.1,7.57,12.1,14.37c0,7.93-6.07,13.54-17.55,13.54c-5.04,0-10.72-1.13-14.58-3.51l0.4-9.99h6.26l1.75,10.88
					l-5.19-1.64v-3.22c4.26,2.3,7.03,3.49,11.36,3.49C-2736.32,269.16-2733.74,266.39-2733.74,262.75z"/>
				<path class="st15" d="M-2719.39,231.36v-3.61h21.19v3.61l-9.46,1.01h-1.97L-2719.39,231.36z M-2707.67,267.28l8.73,1.01v3.61
					h-20.46v-3.61l9.75-1.01H-2707.67z M-2714.22,248.58c0-6.92,0-13.91-0.2-20.83h11.19c-0.2,6.79-0.2,13.77-0.2,20.83v2.92
					c0,6.48,0,13.47,0.2,20.39h-11.19c0.2-6.79,0.2-13.77,0.2-20.83V248.58z M-2708.57,257.09l23.71-29.34h5l-28.71,34.04V257.09z
					 M-2693.47,241.07l16.36,30.83h-12.28l-11.06-22.3L-2693.47,241.07z M-2694.58,268.29l9.03-1.01h1.54l8.84,1.01v3.61h-19.41
					V268.29z M-2692.82,231.36v-3.61h15.55v3.61l-7.78,1.01l-1.97,0.09L-2692.82,231.36z"/>
				<path class="st15" d="M-2672.64,231.36v-3.61h21.67v3.61l-9.95,1.01h-1.97L-2672.64,231.36z M-2660.91,267.28l9.95,1.01v3.61
					h-21.67v-3.61l9.75-1.01H-2660.91z M-2667.47,248.58c0-6.92,0-13.91-0.2-20.83h11.68c-0.2,6.79-0.2,13.77-0.2,20.83v2.44
					c0,6.97,0,13.96,0.2,20.88h-11.68c0.2-6.79,0.2-13.77,0.2-20.83V248.58z"/>
				<path class="st15" d="M-2646.57,231.36v-3.61h22.16v3.61l-9.95,1.01h-2.46L-2646.57,231.36z M-2635.76,267.28v4.62h-10.81v-3.61
					l9.75-1.01H-2635.76z M-2641.6,227.76h11.69c-0.2,6.82-0.2,13.81-0.2,20.83v3.54c0,5.9,0,12.89,0.2,19.77h-11.69
					c0.2-6.82,0.2-13.81,0.2-19.42v-3.89C-2641.4,241.63-2641.4,234.64-2641.6,227.76z M-2611.1,258.73l-0.67,13.16h-23.98v-3.84
					h21.73l-5.1,3.84l2.64-13.16H-2611.1z"/>
				<path class="st15" d="M-2607.61,231.36v-3.61h22.16v3.61l-9.95,1.01h-2.46L-2607.61,231.36z M-2596.8,267.28v4.62h-10.81v-3.61
					l9.75-1.01H-2596.8z M-2602.64,227.76h11.69c-0.2,6.82-0.2,13.81-0.2,20.83v3.54c0,5.9,0,12.89,0.2,19.77h-11.69
					c0.2-6.82,0.2-13.81,0.2-19.42v-3.89C-2602.44,241.63-2602.44,234.64-2602.64,227.76z M-2572.14,258.73l-0.67,13.16h-23.98
					v-3.84h21.73l-5.1,3.84l2.64-13.16H-2572.14z"/>
				<path class="st15" d="M-2568.89,231.36v-3.61h21.91v3.61l-9.99,1.01h-1.93L-2568.89,231.36z M-2543.05,267.04
					c6.03,0,9.64-4.03,9.64-14.16v-25.12h4.38v25.12c0,14.25-6.61,20.27-17.72,20.27c-9.94,0-17.15-4.91-17.15-17.94v-7.3
					c0-6.63,0-13.42-0.2-20.15h11.69c-0.2,6.59-0.2,13.38-0.2,20.15v5.16C-2552.62,263.36-2549.42,267.04-2543.05,267.04z
					 M-2532.36,231.98l-7.15-0.62v-3.61h16.03v3.61l-6.91,0.62H-2532.36z"/>
				<path class="st15" d="M-2519.54,231.36v-3.61h10.81v4.62h-1.06L-2519.54,231.36z M-2506.7,267.28l9.75,1.01v3.61h-22.59v-3.61
					l9.75-1.01H-2506.7z M-2514.37,248.58c0-6.92,0-13.91-0.2-20.83h11.69c-0.2,6.79-0.2,13.77-0.2,20.83v4.1
					c0,5.5,0,12.3,0.2,19.22h-11.69c0.2-6.79,0.2-13.77,0.2-20.83V248.58z M-2501.21,255.01h-7.52v-3.77h7.61
					c5.94,0,8.87-4.12,8.87-10.26c0-6.18-3.29-9.36-9.14-9.36h-7.34v-3.87h7.46c14.01,0,19.58,5.27,19.58,13.27
					C-2481.7,248.7-2486.63,255.01-2501.21,255.01z"/>
			</g>
		</g>
		<path class="st15" d="M-2521.16-5.86c1.08,1.36,0.52,75.31,0.65,110.84c0.01,3.72-65.87,43.07-96.52,60.95
			c-3.36,1.96-5.8,2.15-9.3,0.1c-30.79-17.99-96.72-55.46-96.7-58.64c0.13-22.74,0.07-45.48,0.07-69.22
			c3.43,1.93,6.21,3.46,8.96,5.05c29.31,16.91,58.65,33.77,87.86,50.84c3.3,1.93,5.63,1.81,8.81-0.07
			c17.24-10.16,34.61-20.1,51.95-30.1c1.68-0.97,3.42-1.84,5.9-3.16c0,8.85-0.06,16.96,0.04,25.06c0.03,2.15-40.67,25.32-59.5,36.36
			c-2.55,1.49-4.21,0.81-6.39-0.46c-22.81-13.25-71.64-41.25-74.01-42.51c0,5.52,0.12,10.34-0.05,15.15
			c-0.09,2.38,50.67,31.38,74.41,45.2c2.37,1.38,4.09,1.33,6.42-0.03c23.58-13.73,74.47-42.91,74.44-45.76
			c-0.14-19.48-0.07-38.96-0.07-58.47c-2.49-0.72-3.91,1.08-5.52,2c-22.72,13.04-45.43,26.11-68.05,39.32
			c-2.81,1.64-4.8,1.94-7.81,0.18c-30.95-18.06-97.69-57.67-97.49-61.44c0.32-6,0.22-12.02,0.05-18.03
			c-0.09-2.87,66.14-42.21,97.46-60.36c2.36-1.37,4.19-1.98,6.91-0.39c27.18,15.85,54.46,31.53,81.72,47.26
			c-0.03,2.01-54.9,32.83-80.84,47.93c-2.82,1.64-4.85,1.92-7.82,0.15c-14.05-8.37-28.27-16.43-43.24-25.07
			c7.83-4.51,15.06-8.63,22.23-12.84c1.92-1.13,3.13,0.26,4.44,1.01c5.86,3.31,11.64,6.77,17.48,10.11
			c1.35,0.77,2.55,1.89,4.46,0.77c12.05-7.06,24.16-14.01,37.06-21.46c-12.8-7.41-24.83-14.37-36.85-21.35
			c-1.46-0.85-2.71-0.47-4.07,0.32c-24.55,14.23-49.12,28.43-73.67,42.66c-0.28,0.16-0.42,0.57-0.84,1.17
			c15.1,8.75,30.17,17.49,45.25,26.21c9.14,5.28,18.39,10.37,27.39,15.87c3.07,1.87,5.21,1.82,8.32,0.01
			C-2587.13,31.51-2523.11-5.95-2521.16-5.86z"/>
	</g>
</g>
<g>
	<g>
		<path class="st15" d="M1501.13-824.35c1.08,1.36,0.57,2.87,0.57,4.25c0.03,35.53-0.05,71.06,0.07,106.59
			c0.01,3.72-1.05,5.8-4.36,7.7c-30.8,17.61-61.51,35.37-92.15,53.25c-3.36,1.96-5.8,2.15-9.3,0.1
			c-30.79-17.99-61.72-35.74-92.59-53.59c-1.97-1.14-4.13-1.87-4.11-5.06c0.13-22.74,0.07-45.48,0.07-69.22
			c3.43,1.93,6.21,3.46,8.96,5.05c29.31,16.91,58.65,33.77,87.86,50.84c3.3,1.92,5.63,1.81,8.81-0.07
			c17.24-10.16,34.61-20.1,51.95-30.1c1.68-0.97,3.42-1.84,5.9-3.16c0,8.85-0.06,16.96,0.04,25.06c0.03,2.15-1.46,2.76-2.83,3.55
			c-18.9,10.93-37.84,21.77-56.68,32.81c-2.55,1.49-4.21,0.81-6.39-0.46c-22.81-13.25-45.67-26.41-68.52-39.59
			c-1.53-0.88-3.12-1.67-5.49-2.92c0,5.52,0.12,10.34-0.05,15.15c-0.09,2.38,1.51,3.06,3.06,3.95
			c23.79,13.73,47.61,27.43,71.35,41.25c2.37,1.38,4.09,1.33,6.42-0.03c23.58-13.73,47.23-27.35,70.86-40.99
			c1.89-1.09,3.6-1.92,3.58-4.77c-0.14-19.48-0.07-38.96-0.07-58.47c-2.49-0.72-3.91,1.08-5.52,2
			c-22.72,13.04-45.43,26.11-68.05,39.32c-2.81,1.64-4.8,1.94-7.81,0.18c-30.95-18.06-61.99-35.97-93.1-53.74
			c-3.3-1.89-4.59-3.93-4.39-7.69c0.32-6,0.22-12.02,0.05-18.03c-0.09-2.87,0.79-4.61,3.38-6.1c31.41-18.01,62.76-36.12,94.09-54.26
			c2.36-1.37,4.19-1.98,6.91-0.39c27.18,15.85,54.46,31.53,81.72,47.26c-0.03,2.01-1.8,2.2-2.89,2.83
			c-25.97,15.05-52.01,30-77.95,45.1c-2.82,1.64-4.85,1.92-7.82,0.15c-14.05-8.37-28.27-16.43-43.24-25.07
			c7.83-4.51,15.06-8.63,22.23-12.84c1.92-1.13,3.13,0.26,4.44,1.01c5.86,3.31,11.64,6.77,17.48,10.11
			c1.35,0.77,2.55,1.89,4.46,0.77c12.05-7.06,24.16-14.01,37.06-21.46c-12.8-7.41-24.83-14.37-36.86-21.35
			c-1.46-0.85-2.71-0.47-4.07,0.32c-24.55,14.23-49.12,28.43-73.67,42.66c-0.28,0.16-0.42,0.57-0.84,1.17
			c15.1,8.75,30.17,17.49,45.25,26.21c9.14,5.28,18.39,10.37,27.39,15.87c3.07,1.87,5.21,1.82,8.32,0.01
			c30.49-17.79,61.08-35.38,91.67-53C1497.84-823.06,1499.17-824.44,1501.13-824.35z"/>
	</g>
</g>
<g>
	<g>
		<g>
			<g>
				<path class="st15" d="M-2733.74-619.19c0-3.54-1.75-5.15-5.8-6.95l-2.84-1.3c-7.92-3.61-12.48-7.6-12.48-15.04
					c0-8.07,6.52-12.96,16.7-12.96c4.79,0,9.42,1.27,12.7,3.42l-0.55,9.41h-6.16l-1.64-10.14l5.42,1.93v3.36
					c-3.58-2.59-6.12-3.98-9.58-3.98c-3.83,0-6.93,2.43-6.93,6.11c0,3.55,2.12,5.41,6.11,7.19l3.15,1.44
					c8.58,3.86,12.1,7.57,12.1,14.37c0,7.93-6.07,13.54-17.55,13.54c-5.04,0-10.72-1.13-14.58-3.51l0.4-9.99h6.26l1.75,10.88
					l-5.19-1.64v-3.22c4.26,2.3,7.03,3.49,11.36,3.49C-2736.32-612.79-2733.74-615.55-2733.74-619.19z"/>
				<path class="st15" d="M-2719.39-650.58v-3.61h21.19v3.61l-9.46,1.01h-1.97L-2719.39-650.58z M-2707.67-614.67l8.73,1.01v3.61
					h-20.46v-3.61l9.75-1.01H-2707.67z M-2714.22-633.36c0-6.92,0-13.91-0.2-20.83h11.19c-0.2,6.79-0.2,13.77-0.2,20.83v2.92
					c0,6.48,0,13.47,0.2,20.39h-11.19c0.2-6.79,0.2-13.77,0.2-20.83V-633.36z M-2708.57-624.86l23.71-29.34h5l-28.71,34.04V-624.86z
					 M-2693.47-640.88l16.36,30.83h-12.28l-11.06-22.3L-2693.47-640.88z M-2694.58-613.66l9.03-1.01h1.54l8.84,1.01v3.61h-19.41
					V-613.66z M-2692.82-650.58v-3.61h15.55v3.61l-7.78,1.01l-1.97,0.09L-2692.82-650.58z"/>
				<path class="st15" d="M-2672.64-650.58v-3.61h21.67v3.61l-9.95,1.01h-1.97L-2672.64-650.58z M-2660.91-614.67l9.95,1.01v3.61
					h-21.67v-3.61l9.75-1.01H-2660.91z M-2667.46-633.36c0-6.92,0-13.91-0.2-20.83h11.69c-0.2,6.79-0.2,13.77-0.2,20.83v2.44
					c0,6.97,0,13.96,0.2,20.88h-11.69c0.2-6.79,0.2-13.77,0.2-20.83V-633.36z"/>
				<path class="st15" d="M-2646.57-650.58v-3.61h22.16v3.61l-9.95,1.01h-2.46L-2646.57-650.58z M-2635.76-614.67v4.62h-10.81v-3.61
					l9.75-1.01H-2635.76z M-2641.6-654.19h11.69c-0.2,6.82-0.2,13.81-0.2,20.83v3.54c0,5.9,0,12.89,0.2,19.77h-11.69
					c0.2-6.82,0.2-13.81,0.2-19.42v-3.89C-2641.4-640.32-2641.4-647.31-2641.6-654.19z M-2611.1-623.21l-0.67,13.16h-23.99v-3.84
					h21.73l-5.1,3.84l2.64-13.16H-2611.1z"/>
				<path class="st15" d="M-2607.61-650.58v-3.61h22.16v3.61l-9.95,1.01h-2.46L-2607.61-650.58z M-2596.8-614.67v4.62h-10.81v-3.61
					l9.75-1.01H-2596.8z M-2602.64-654.19h11.69c-0.2,6.82-0.2,13.81-0.2,20.83v3.54c0,5.9,0,12.89,0.2,19.77h-11.69
					c0.2-6.82,0.2-13.81,0.2-19.42v-3.89C-2602.44-640.32-2602.44-647.31-2602.64-654.19z M-2572.14-623.21l-0.67,13.16h-23.99
					v-3.84h21.73l-5.1,3.84l2.64-13.16H-2572.14z"/>
				<path class="st15" d="M-2568.89-650.58v-3.61h21.91v3.61l-9.99,1.01h-1.93L-2568.89-650.58z M-2543.05-614.91
					c6.03,0,9.63-4.03,9.63-14.16v-25.12h4.38v25.12c0,14.25-6.61,20.27-17.71,20.27c-9.94,0-17.15-4.91-17.15-17.94v-7.3
					c0-6.63,0-13.42-0.2-20.15h11.68c-0.2,6.59-0.2,13.38-0.2,20.15v5.16C-2552.62-618.59-2549.42-614.91-2543.05-614.91z
					 M-2532.36-649.96l-7.15-0.62v-3.61h16.03v3.61l-6.9,0.62H-2532.36z"/>
				<path class="st15" d="M-2519.54-650.58v-3.61h10.81v4.62h-1.06L-2519.54-650.58z M-2506.7-614.67l9.75,1.01v3.61h-22.59v-3.61
					l9.75-1.01H-2506.7z M-2514.37-633.36c0-6.92,0-13.91-0.2-20.83h11.69c-0.2,6.79-0.2,13.77-0.2,20.83v4.1
					c0,5.5,0,12.3,0.2,19.22h-11.69c0.2-6.79,0.2-13.77,0.2-20.83V-633.36z M-2501.2-626.93h-7.52v-3.77h7.61
					c5.94,0,8.87-4.12,8.87-10.26c0-6.18-3.29-9.36-9.14-9.36h-7.34v-3.87h7.46c14.01,0,19.58,5.27,19.58,13.27
					C-2481.69-633.25-2486.63-626.93-2501.2-626.93z"/>
			</g>
		</g>
		<path class="st15" d="M-2521.15-887.81c1.08,1.36,0.57,2.87,0.57,4.25c0.02,35.53-0.05,71.06,0.07,106.59
			c0.01,3.72-1.05,5.8-4.36,7.7c-30.8,17.61-61.51,35.37-92.15,53.25c-3.36,1.96-5.8,2.15-9.3,0.1
			c-30.79-17.99-61.72-35.74-92.59-53.59c-1.97-1.14-4.13-1.87-4.11-5.06c0.13-22.74,0.07-45.48,0.07-69.22
			c3.43,1.93,6.21,3.46,8.96,5.05c29.31,16.91,58.65,33.77,87.86,50.84c3.29,1.92,5.63,1.81,8.81-0.07
			c17.24-10.16,34.61-20.1,51.95-30.1c1.68-0.97,3.42-1.84,5.9-3.16c0,8.85-0.06,16.96,0.04,25.06c0.03,2.15-1.46,2.76-2.83,3.55
			c-18.9,10.93-37.84,21.77-56.68,32.81c-2.55,1.49-4.21,0.81-6.39-0.46c-22.81-13.25-45.67-26.41-68.52-39.59
			c-1.53-0.88-3.12-1.67-5.49-2.92c0,5.52,0.12,10.34-0.05,15.15c-0.09,2.38,1.51,3.06,3.06,3.95
			c23.79,13.73,47.61,27.43,71.35,41.25c2.37,1.38,4.09,1.33,6.42-0.03c23.58-13.73,47.23-27.35,70.86-40.99
			c1.89-1.09,3.6-1.92,3.58-4.77c-0.14-19.48-0.07-38.96-0.07-58.47c-2.49-0.72-3.91,1.08-5.52,2
			c-22.72,13.04-45.43,26.11-68.05,39.32c-2.81,1.64-4.8,1.94-7.81,0.18c-30.95-18.06-61.99-35.97-93.1-53.74
			c-3.3-1.89-4.59-3.93-4.39-7.69c0.32-6,0.23-12.02,0.05-18.03c-0.09-2.87,0.79-4.61,3.38-6.1c31.41-18.01,62.76-36.12,94.09-54.26
			c2.36-1.37,4.19-1.98,6.91-0.39c27.18,15.85,54.46,31.53,81.72,47.26c-0.03,2.01-1.8,2.2-2.89,2.83
			c-25.97,15.05-52.01,30-77.95,45.1c-2.82,1.64-4.85,1.92-7.82,0.15c-14.05-8.37-28.27-16.43-43.24-25.07
			c7.83-4.51,15.06-8.63,22.23-12.84c1.92-1.13,3.13,0.26,4.44,1.01c5.86,3.31,11.64,6.77,17.48,10.11
			c1.35,0.77,2.55,1.89,4.46,0.77c12.05-7.06,24.16-14.01,37.06-21.46c-12.8-7.41-24.83-14.37-36.85-21.35
			c-1.46-0.85-2.71-0.47-4.07,0.32c-24.55,14.23-49.12,28.43-73.67,42.66c-0.28,0.16-0.42,0.57-0.84,1.17
			c15.1,8.75,30.17,17.49,45.25,26.21c9.14,5.28,18.39,10.37,27.39,15.87c3.07,1.87,5.21,1.82,8.32,0.01
			c30.49-17.79,61.08-35.38,91.67-53C-2524.44-886.52-2523.11-887.9-2521.15-887.81z"/>
	</g>
</g>
<g>
	<g>
		<g>
			<g>
				<path d="M-4051.8,262.75c0-3.54-1.75-5.15-5.8-6.95l-2.84-1.3c-7.92-3.61-12.48-7.6-12.48-15.04c0-8.07,6.52-12.96,16.7-12.96
					c4.79,0,9.42,1.27,12.7,3.42l-0.55,9.41h-6.16l-1.64-10.14l5.42,1.93v3.36c-3.58-2.59-6.12-3.98-9.58-3.98
					c-3.83,0-6.93,2.43-6.93,6.11c0,3.55,2.12,5.41,6.11,7.19l3.15,1.44c8.58,3.86,12.1,7.57,12.1,14.37
					c0,7.93-6.07,13.54-17.55,13.54c-5.04,0-10.72-1.13-14.58-3.51l0.4-9.99h6.26l1.75,10.88l-5.19-1.64v-3.22
					c4.26,2.3,7.03,3.49,11.36,3.49C-4054.38,269.16-4051.8,266.39-4051.8,262.75z"/>
				<path d="M-4037.45,231.36v-3.61h21.19v3.61l-9.46,1.01h-1.97L-4037.45,231.36z M-4025.73,267.28l8.73,1.01v3.61h-20.46v-3.61
					l9.75-1.01H-4025.73z M-4032.28,248.58c0-6.92,0-13.91-0.2-20.83h11.19c-0.2,6.79-0.2,13.77-0.2,20.83v2.92
					c0,6.48,0,13.47,0.2,20.39h-11.19c0.2-6.79,0.2-13.77,0.2-20.83V248.58z M-4026.63,257.09l23.71-29.34h5l-28.71,34.04V257.09z
					 M-4011.53,241.07l16.36,30.83h-12.28l-11.06-22.3L-4011.53,241.07z M-4012.64,268.29l9.03-1.01h1.54l8.84,1.01v3.61h-19.41
					V268.29z M-4010.88,231.36v-3.61h15.55v3.61l-7.78,1.01l-1.97,0.09L-4010.88,231.36z"/>
				<path d="M-3990.7,231.36v-3.61h21.67v3.61l-9.95,1.01h-1.97L-3990.7,231.36z M-3978.97,267.28l9.95,1.01v3.61h-21.67v-3.61
					l9.75-1.01H-3978.97z M-3985.53,248.58c0-6.92,0-13.91-0.2-20.83h11.68c-0.2,6.79-0.2,13.77-0.2,20.83v2.44
					c0,6.97,0,13.96,0.2,20.88h-11.68c0.2-6.79,0.2-13.77,0.2-20.83V248.58z"/>
				<path d="M-3964.63,231.36v-3.61h22.16v3.61l-9.95,1.01h-2.46L-3964.63,231.36z M-3953.82,267.28v4.62h-10.81v-3.61l9.75-1.01
					H-3953.82z M-3959.66,227.76h11.69c-0.2,6.82-0.2,13.81-0.2,20.83v3.54c0,5.9,0,12.89,0.2,19.77h-11.69
					c0.2-6.82,0.2-13.81,0.2-19.42v-3.89C-3959.46,241.63-3959.46,234.64-3959.66,227.76z M-3929.16,258.73l-0.67,13.16h-23.99
					v-3.84h21.73l-5.1,3.84l2.64-13.16H-3929.16z"/>
				<path d="M-3925.67,231.36v-3.61h22.16v3.61l-9.95,1.01h-2.46L-3925.67,231.36z M-3914.86,267.28v4.62h-10.81v-3.61l9.75-1.01
					H-3914.86z M-3920.7,227.76h11.69c-0.2,6.82-0.2,13.81-0.2,20.83v3.54c0,5.9,0,12.89,0.2,19.77h-11.69
					c0.2-6.82,0.2-13.81,0.2-19.42v-3.89C-3920.5,241.63-3920.5,234.64-3920.7,227.76z M-3890.2,258.73l-0.67,13.16h-23.99v-3.84
					h21.73l-5.1,3.84l2.64-13.16H-3890.2z"/>
				<path d="M-3886.95,231.36v-3.61h21.91v3.61l-9.99,1.01h-1.93L-3886.95,231.36z M-3861.11,267.04c6.03,0,9.64-4.03,9.64-14.16
					v-25.12h4.38v25.12c0,14.25-6.61,20.27-17.72,20.27c-9.94,0-17.15-4.91-17.15-17.94v-7.3c0-6.63,0-13.42-0.2-20.15h11.68
					c-0.2,6.59-0.2,13.38-0.2,20.15v5.16C-3870.68,263.36-3867.48,267.04-3861.11,267.04z M-3850.42,231.98l-7.15-0.62v-3.61h16.03
					v3.61l-6.91,0.62H-3850.42z"/>
				<path d="M-3837.6,231.36v-3.61h10.81v4.62h-1.06L-3837.6,231.36z M-3824.76,267.28l9.75,1.01v3.61h-22.59v-3.61l9.75-1.01
					H-3824.76z M-3832.43,248.58c0-6.92,0-13.91-0.2-20.83h11.69c-0.2,6.79-0.2,13.77-0.2,20.83v4.1c0,5.5,0,12.3,0.2,19.22h-11.69
					c0.2-6.79,0.2-13.77,0.2-20.83V248.58z M-3819.26,255.01h-7.52v-3.77h7.61c5.94,0,8.87-4.12,8.87-10.26
					c0-6.18-3.29-9.36-9.14-9.36h-7.34v-3.87h7.46c14.01,0,19.58,5.27,19.58,13.27C-3799.75,248.7-3804.69,255.01-3819.26,255.01z"
					/>
			</g>
		</g>
		<path d="M-3839.22-5.86c1.08,1.36,0.52,75.31,0.65,110.84c0.01,3.72-65.88,43.07-96.52,60.95c-3.36,1.96-5.8,2.15-9.3,0.1
			c-30.79-17.99-96.72-55.46-96.7-58.64c0.13-22.74,0.07-45.48,0.07-69.22c3.43,1.93,6.21,3.46,8.96,5.05
			c29.31,16.91,58.65,33.77,87.86,50.84c3.29,1.93,5.63,1.81,8.81-0.07c17.24-10.16,34.61-20.1,51.95-30.1
			c1.68-0.97,3.42-1.84,5.9-3.16c0,8.85-0.06,16.96,0.04,25.06c0.03,2.15-40.67,25.32-59.5,36.36c-2.55,1.49-4.21,0.81-6.39-0.46
			c-22.81-13.25-71.64-41.25-74.01-42.51c0,5.52,0.12,10.34-0.05,15.15c-0.09,2.38,50.67,31.38,74.41,45.2
			c2.37,1.38,4.09,1.33,6.42-0.03c23.58-13.73,74.46-42.91,74.44-45.76c-0.14-19.48-0.07-38.96-0.07-58.47
			c-2.49-0.72-3.91,1.08-5.52,2c-22.72,13.04-45.43,26.11-68.05,39.32c-2.81,1.64-4.8,1.94-7.81,0.18
			c-30.95-18.06-97.69-57.67-97.49-61.44c0.32-6,0.22-12.02,0.05-18.03c-0.09-2.87,66.14-42.21,97.46-60.36
			c2.36-1.37,4.19-1.98,6.91-0.39c27.18,15.85,54.46,31.53,81.72,47.26c-0.03,2.01-54.9,32.83-80.84,47.93
			c-2.82,1.64-4.85,1.92-7.82,0.15c-14.05-8.37-28.27-16.43-43.24-25.07c7.83-4.51,15.06-8.63,22.23-12.84
			c1.92-1.13,3.13,0.26,4.44,1.01c5.86,3.31,11.64,6.77,17.48,10.11c1.35,0.77,2.55,1.89,4.46,0.77
			c12.05-7.06,24.16-14.01,37.06-21.46c-12.8-7.41-24.83-14.37-36.85-21.35c-1.46-0.85-2.71-0.47-4.07,0.32
			c-24.55,14.23-49.12,28.43-73.67,42.66c-0.28,0.16-0.42,0.57-0.84,1.17c15.1,8.75,30.17,17.49,45.25,26.21
			c9.14,5.28,18.39,10.37,27.39,15.87c3.07,1.87,5.21,1.82,8.32,0.01C-3905.2,31.51-3841.17-5.95-3839.22-5.86z"/>
	</g>
</g>
<g>
	<g>
		<path d="M201.9-824.35c1.08,1.36,0.57,2.87,0.57,4.25c0.03,35.53-0.05,71.06,0.07,106.59c0.01,3.72-1.05,5.8-4.36,7.7
			c-30.8,17.61-61.51,35.37-92.15,53.25c-3.36,1.96-5.8,2.15-9.3,0.1c-30.79-17.99-61.72-35.74-92.59-53.59
			c-1.97-1.14-4.13-1.87-4.11-5.06c0.13-22.74,0.07-45.48,0.07-69.22c3.43,1.93,6.21,3.46,8.96,5.05
			c29.31,16.91,58.65,33.77,87.86,50.84c3.3,1.92,5.63,1.81,8.81-0.07c17.24-10.16,34.61-20.1,51.95-30.1
			c1.68-0.97,3.42-1.84,5.9-3.16c0,8.85-0.06,16.96,0.04,25.06c0.03,2.15-1.46,2.76-2.83,3.55c-18.9,10.93-37.84,21.77-56.68,32.81
			c-2.55,1.49-4.21,0.81-6.39-0.46c-22.81-13.25-45.67-26.41-68.52-39.59c-1.53-0.88-3.12-1.67-5.49-2.92
			c0,5.52,0.12,10.34-0.05,15.15c-0.09,2.38,1.51,3.06,3.06,3.95c23.79,13.73,47.61,27.43,71.35,41.25
			c2.37,1.38,4.09,1.33,6.42-0.03c23.58-13.73,47.23-27.35,70.86-40.99c1.89-1.09,3.6-1.92,3.58-4.77
			c-0.14-19.48-0.07-38.96-0.07-58.47c-2.49-0.72-3.91,1.08-5.52,2c-22.72,13.04-45.43,26.11-68.05,39.32
			c-2.81,1.64-4.8,1.94-7.81,0.18c-30.95-18.06-61.99-35.97-93.1-53.74c-3.3-1.89-4.59-3.93-4.39-7.69c0.32-6,0.23-12.02,0.05-18.03
			c-0.09-2.87,0.79-4.61,3.38-6.1c31.41-18.01,62.76-36.12,94.09-54.26c2.36-1.37,4.19-1.98,6.91-0.39
			c27.18,15.85,54.46,31.53,81.72,47.26c-0.03,2.01-1.8,2.2-2.89,2.83c-25.97,15.05-52.01,30-77.95,45.1
			c-2.82,1.64-4.85,1.92-7.82,0.15c-14.05-8.37-28.27-16.43-43.24-25.07c7.83-4.51,15.06-8.63,22.23-12.84
			c1.92-1.13,3.13,0.26,4.44,1.01c5.86,3.31,11.64,6.77,17.48,10.11c1.35,0.77,2.55,1.89,4.46,0.77
			c12.05-7.06,24.16-14.01,37.06-21.46c-12.8-7.41-24.83-14.37-36.86-21.35c-1.46-0.85-2.71-0.47-4.07,0.32
			c-24.55,14.23-49.12,28.43-73.67,42.66c-0.28,0.16-0.42,0.57-0.84,1.17c15.1,8.75,30.17,17.49,45.25,26.21
			c9.14,5.28,18.39,10.37,27.39,15.87c3.07,1.87,5.21,1.82,8.32,0.01c30.49-17.79,61.08-35.38,91.67-53
			C198.61-823.06,199.95-824.44,201.9-824.35z"/>
	</g>
</g>
<g>
	<g>
		<g>
			<g>
				<path d="M-4051.8-619.19c0-3.54-1.75-5.15-5.8-6.95l-2.84-1.3c-7.92-3.61-12.48-7.6-12.48-15.04c0-8.07,6.52-12.96,16.7-12.96
					c4.79,0,9.42,1.27,12.7,3.42l-0.55,9.41h-6.16l-1.64-10.14l5.42,1.93v3.36c-3.58-2.59-6.12-3.98-9.58-3.98
					c-3.83,0-6.93,2.43-6.93,6.11c0,3.55,2.12,5.41,6.11,7.19l3.15,1.44c8.58,3.86,12.1,7.57,12.1,14.37
					c0,7.93-6.07,13.54-17.55,13.54c-5.04,0-10.72-1.13-14.58-3.51l0.4-9.99h6.26l1.75,10.88l-5.19-1.64v-3.22
					c4.26,2.3,7.03,3.49,11.36,3.49C-4054.38-612.79-4051.8-615.55-4051.8-619.19z"/>
				<path d="M-4037.45-650.58v-3.61h21.19v3.61l-9.46,1.01h-1.97L-4037.45-650.58z M-4025.73-614.67l8.73,1.01v3.61h-20.46v-3.61
					l9.75-1.01H-4025.73z M-4032.28-633.36c0-6.92,0-13.91-0.2-20.83h11.19c-0.2,6.79-0.2,13.77-0.2,20.83v2.92
					c0,6.48,0,13.47,0.2,20.39h-11.19c0.2-6.79,0.2-13.77,0.2-20.83V-633.36z M-4026.63-624.86l23.71-29.34h5l-28.71,34.04V-624.86z
					 M-4011.53-640.88l16.36,30.83h-12.28l-11.06-22.3L-4011.53-640.88z M-4012.64-613.66l9.03-1.01h1.54l8.84,1.01v3.61h-19.41
					V-613.66z M-4010.88-650.58v-3.61h15.55v3.61l-7.78,1.01l-1.97,0.09L-4010.88-650.58z"/>
				<path d="M-3990.7-650.58v-3.61h21.67v3.61l-9.95,1.01h-1.97L-3990.7-650.58z M-3978.97-614.67l9.95,1.01v3.61h-21.67v-3.61
					l9.75-1.01H-3978.97z M-3985.53-633.36c0-6.92,0-13.91-0.2-20.83h11.68c-0.2,6.79-0.2,13.77-0.2,20.83v2.44
					c0,6.97,0,13.96,0.2,20.88h-11.68c0.2-6.79,0.2-13.77,0.2-20.83V-633.36z"/>
				<path d="M-3964.63-650.58v-3.61h22.16v3.61l-9.95,1.01h-2.46L-3964.63-650.58z M-3953.82-614.67v4.62h-10.81v-3.61l9.75-1.01
					H-3953.82z M-3959.66-654.19h11.69c-0.2,6.82-0.2,13.81-0.2,20.83v3.54c0,5.9,0,12.89,0.2,19.77h-11.69
					c0.2-6.82,0.2-13.81,0.2-19.42v-3.89C-3959.46-640.32-3959.46-647.31-3959.66-654.19z M-3929.16-623.21l-0.67,13.16h-23.99
					v-3.84h21.73l-5.1,3.84l2.64-13.16H-3929.16z"/>
				<path d="M-3925.67-650.58v-3.61h22.16v3.61l-9.95,1.01h-2.46L-3925.67-650.58z M-3914.86-614.67v4.62h-10.81v-3.61l9.75-1.01
					H-3914.86z M-3920.7-654.19h11.69c-0.2,6.82-0.2,13.81-0.2,20.83v3.54c0,5.9,0,12.89,0.2,19.77h-11.69
					c0.2-6.82,0.2-13.81,0.2-19.42v-3.89C-3920.5-640.32-3920.5-647.31-3920.7-654.19z M-3890.2-623.21l-0.67,13.16h-23.99v-3.84
					h21.73l-5.1,3.84l2.64-13.16H-3890.2z"/>
				<path d="M-3886.95-650.58v-3.61h21.91v3.61l-9.99,1.01h-1.93L-3886.95-650.58z M-3861.11-614.91c6.03,0,9.64-4.03,9.64-14.16
					v-25.12h4.38v25.12c0,14.25-6.61,20.27-17.72,20.27c-9.94,0-17.15-4.91-17.15-17.94v-7.3c0-6.63,0-13.42-0.2-20.15h11.68
					c-0.2,6.59-0.2,13.38-0.2,20.15v5.16C-3870.68-618.59-3867.48-614.91-3861.11-614.91z M-3850.42-649.96l-7.15-0.62v-3.61h16.03
					v3.61l-6.91,0.62H-3850.42z"/>
				<path d="M-3837.6-650.58v-3.61h10.81v4.62h-1.06L-3837.6-650.58z M-3824.76-614.67l9.75,1.01v3.61h-22.59v-3.61l9.75-1.01
					H-3824.76z M-3832.43-633.36c0-6.92,0-13.91-0.2-20.83h11.69c-0.2,6.79-0.2,13.77-0.2,20.83v4.1c0,5.5,0,12.3,0.2,19.22h-11.69
					c0.2-6.79,0.2-13.77,0.2-20.83V-633.36z M-3819.26-626.93h-7.52v-3.77h7.61c5.94,0,8.87-4.12,8.87-10.26
					c0-6.18-3.29-9.36-9.14-9.36h-7.34v-3.87h7.46c14.01,0,19.58,5.27,19.58,13.27C-3799.75-633.25-3804.69-626.93-3819.26-626.93z"
					/>
			</g>
		</g>
		<path d="M-3839.21-887.81c1.08,1.36,0.57,2.87,0.57,4.25c0.03,35.53-0.05,71.06,0.07,106.59c0.01,3.72-1.05,5.8-4.36,7.7
			c-30.8,17.61-61.51,35.37-92.15,53.25c-3.36,1.96-5.8,2.15-9.3,0.1c-30.79-17.99-61.72-35.74-92.59-53.59
			c-1.97-1.14-4.13-1.87-4.11-5.06c0.13-22.74,0.07-45.48,0.07-69.22c3.43,1.93,6.21,3.46,8.96,5.05
			c29.31,16.91,58.65,33.77,87.86,50.84c3.3,1.92,5.63,1.81,8.81-0.07c17.24-10.16,34.61-20.1,51.95-30.1
			c1.68-0.97,3.42-1.84,5.9-3.16c0,8.85-0.06,16.96,0.04,25.06c0.03,2.15-1.46,2.76-2.83,3.55c-18.9,10.93-37.84,21.77-56.68,32.81
			c-2.55,1.49-4.21,0.81-6.39-0.46c-22.81-13.25-45.67-26.41-68.52-39.59c-1.53-0.88-3.12-1.67-5.49-2.92
			c0,5.52,0.12,10.34-0.05,15.15c-0.09,2.38,1.51,3.06,3.06,3.95c23.79,13.73,47.61,27.43,71.35,41.25
			c2.37,1.38,4.09,1.33,6.42-0.03c23.58-13.73,47.23-27.35,70.86-40.99c1.89-1.09,3.6-1.92,3.58-4.77
			c-0.14-19.48-0.07-38.96-0.07-58.47c-2.49-0.72-3.91,1.08-5.52,2c-22.72,13.04-45.43,26.11-68.05,39.32
			c-2.81,1.64-4.8,1.94-7.81,0.18c-30.95-18.06-61.99-35.97-93.1-53.74c-3.3-1.89-4.59-3.93-4.39-7.69c0.32-6,0.23-12.02,0.05-18.03
			c-0.09-2.87,0.79-4.61,3.38-6.1c31.41-18.01,62.76-36.12,94.09-54.26c2.36-1.37,4.19-1.98,6.91-0.39
			c27.18,15.85,54.46,31.53,81.72,47.26c-0.03,2.01-1.8,2.2-2.89,2.83c-25.97,15.05-52.01,30-77.95,45.1
			c-2.82,1.64-4.85,1.92-7.82,0.15c-14.05-8.37-28.27-16.43-43.24-25.07c7.83-4.51,15.06-8.63,22.23-12.84
			c1.92-1.13,3.13,0.26,4.44,1.01c5.86,3.31,11.64,6.77,17.48,10.11c1.35,0.77,2.55,1.89,4.46,0.77
			c12.05-7.06,24.16-14.01,37.06-21.46c-12.8-7.41-24.83-14.37-36.86-21.35c-1.46-0.85-2.71-0.47-4.07,0.32
			c-24.55,14.23-49.12,28.43-73.67,42.66c-0.28,0.16-0.42,0.57-0.84,1.17c15.1,8.75,30.17,17.49,45.25,26.21
			c9.14,5.28,18.39,10.37,27.39,15.87c3.07,1.87,5.21,1.82,8.32,0.01c30.49-17.79,61.08-35.38,91.67-53
			C-3842.5-886.52-3841.17-887.9-3839.21-887.81z"/>
	</g>
</g>
</svg>
